<svg width="279" height="167" viewBox="0 0 279 167" fill="none" xmlns="http://www.w3.org/2000/svg">
<path d="M107.5 142.5C108.7 141.7 108.667 140.5 108.5 140L102.5 141L101.5 142C101.1 142.4 101.333 142.833 101.5 143L102 142.5C102.5 142.167 103.6 141.6 104 142C104.4 142.4 102.833 143.167 102 143.5C102.4 144.3 104.5 143.167 105.5 142.5C105.833 142 106.7 141 107.5 141C108.3 141 107.167 142.333 106.5 143C106.333 143.167 106.3 143.3 107.5 142.5Z" fill="black"/>
<path d="M148 118C148 112.8 153.333 105.833 156 103L149.5 96L132 81.5L111.5 80L106.5 94L90.5 139L82.5 147.5L85.5 146.5C88.7 144.9 96.5 142.833 100 142C103.667 141 112.1 138.9 116.5 138.5C120.9 138.1 127.667 135 130.5 133.5C132.167 132.333 135.5 130.1 135.5 130.5C135.5 130.9 134.167 132 133.5 132.5C137.1 130.5 139 128.333 139.5 127.5C140.333 126.167 142.1 123.6 142.5 124C142.9 124.4 142 126.167 141.5 127C142 126.333 143 124.8 143 124C143 123 148.5 114 148 115C147.6 115.8 147.833 117.333 148 118Z" fill="#EADAB8"/>
<path d="M116.55 99C114.95 97 117.217 92.1667 118.55 90L127.05 88L154.55 101.5C152.55 104.667 147.95 112.4 145.55 118C143.15 123.6 134.884 130 131.05 132.5C128.384 134 121.55 137.2 115.55 138C109.55 138.8 95.0503 143.333 88.5503 145.5C87.217 146.333 84.9503 147.4 86.5503 145C88.1503 142.6 98.8836 139.333 104.05 138C104.884 137.167 107.95 135.3 113.55 134.5C119.15 133.7 127.217 126.5 130.55 123L146.55 107.5H140.05L124.55 104.5C122.55 103.5 118.15 101 116.55 99Z" fill="url(#paint0_linear_21_44)"/>
<path d="M260.942 28.5L247.942 30.5L248.442 31L260.942 29V28.5Z" fill="#5D7D89"/>
<path d="M249.442 33C255.842 33 271.442 29 278.942 27C273.108 27.3333 262.142 28 260.942 28C259.442 28 238.942 30 227.442 32C218.242 33.6 201.942 34 194.942 34C193.942 34.5 193.942 36 193.442 36.5C193.042 36.9 193.275 41.3333 193.442 43.5C193.942 45 195.042 48 195.442 48C195.842 48 196.275 47.6667 196.442 47.5C207.642 43.1 236.442 36 249.442 33Z" fill="#001522" fill-opacity="0.1"/>
<path d="M205.442 39L268.942 28C268.942 27.8333 268.442 27.5 266.442 27.5C264.442 27.5 243.942 29.8333 233.942 31C227.108 31.6667 212.242 33.2 207.442 34C202.642 34.8 197.442 34.3333 195.442 34C195.108 34.1667 194.242 34.7 193.442 35.5C192.642 36.3 193.108 40.1667 193.442 42C193.942 42.6667 195.242 43.8 196.442 43C197.642 42.2 202.942 40 205.442 39Z" fill="#012639"/>
<path d="M244.442 31.5L208.942 35.5V34.5L244.442 30.5V31.5Z" fill="#5D7D89"/>
<path d="M196.1 46.821C195.1 48.821 192.9 53.521 192.1 56.321C191.3 59.121 188.433 65.4877 187.1 68.321C186.1 70.4877 184.1 74.921 184.1 75.321V73.821C183.433 74.821 182 77.021 181.6 77.821C181.2 78.621 176.766 83.4877 174.6 85.821C174.766 85.1544 175.1 83.721 175.1 83.321C175.1 82.921 170.766 87.4877 168.6 89.821C166.6 91.6544 162.5 95.621 162.1 96.821C161.7 98.021 161.6 97.9877 161.6 97.821C161.766 97.4877 162 96.721 161.6 96.321C161.2 95.921 159.433 98.4877 158.6 99.821L156.1 102.821C155.6 103.154 154.3 103.721 153.1 103.321C151.9 102.921 152.266 102.154 152.6 101.821C152.933 101.321 153.3 100.521 152.1 101.321C150.9 102.121 150.933 102.988 151.1 103.321C150.933 103.488 150.4 103.721 149.6 103.321C148.8 102.921 148.6 102.154 148.6 101.821C148.433 101.821 148 101.921 147.6 102.321L146.6 103.321C146.266 103.321 145.6 102.921 145.6 101.321C145.6 99.8625 145.877 99.4011 146.052 99.331C145.197 99.5154 143.385 100.251 142.6 101.821C141.8 103.421 140.266 102.821 139.6 102.321C139.433 101.821 139.4 100.521 140.6 99.321C141.8 98.121 140.433 99.1544 139.6 99.821C139.266 100.488 138.3 101.721 137.1 101.321C135.9 100.921 136.266 99.4877 136.6 98.821C136.933 98.1544 137.4 96.921 136.6 97.321C135.6 97.821 134.6 99.821 133.6 99.821C132.8 99.821 132.266 99.1544 132.1 98.821C132.1 98.321 132.2 97.121 132.6 96.321C133 95.521 133.1 94.321 133.1 93.821C132.933 93.6544 132.2 93.821 130.6 95.821C129 97.821 127.6 98.6544 127.1 98.821C126.266 98.821 124.7 98.521 125.1 97.321C125.5 96.121 126.266 94.4877 126.6 93.821C126.433 93.6544 125.6 93.621 123.6 94.821C121.6 96.021 120.433 95.9877 120.1 95.821C120.1 95.321 120.3 94.121 121.1 93.321C121.9 92.521 121.1 92.321 120.6 92.321C119.933 91.9877 118.8 91.021 119.6 89.821C120.4 88.621 121.266 87.6544 121.6 87.321C121.433 87.1544 120.9 86.921 120.1 87.321C119.3 87.721 119.766 86.4877 120.1 85.821C120.266 85.6544 120.4 85.321 119.6 85.321C118.8 85.321 117.6 85.6544 117.1 85.821C116.6 85.821 115.7 85.421 116.1 83.821C116.5 82.221 116.933 81.821 117.1 81.821C117.6 82.1544 118.7 82.821 119.1 82.821C119.6 82.821 124.6 83.321 126.1 82.821C127.3 82.421 130.933 83.321 132.6 83.821C135.1 83.6544 140.8 83.021 143.6 81.821C145.889 80.84 153.948 77.6841 157.724 76.4738C157.626 76.2494 157.655 75.9317 157.85 75.5C160.664 69.2543 158.775 73.7931 158.503 76.2341C158.956 76.1026 159.299 76.0201 159.5 76L158.891 76.9228C160.7 76.8736 163.949 75.4713 164.6 74.821L173.6 67.321C175.1 65.321 178.2 60.621 178.6 57.821C179 55.021 180.333 49.8333 181.5 48.5C183.833 44.3333 190.3 38.321 193.1 40.321C193.433 42.4877 194.5 46.821 196.1 46.821Z" fill="#E75C89"/>
<path d="M192.1 45.321C190.766 48.821 187.8 56.321 186.6 58.321C185.4 60.321 183.433 65.4877 182.6 67.821C180.1 71.821 174.5 80.221 172.1 81.821C169.1 83.821 162.6 89.821 156.6 91.821C151.8 93.421 142.6 93.4877 138.6 93.321L128.1 89.321C127.192 88.1109 125.214 85.8026 123.959 85.3862C123.511 85.3479 123.354 85.321 123.6 85.321C123.711 85.321 123.831 85.3438 123.959 85.3862C126.243 85.5817 136.091 86.0752 138.6 84.821C141 83.621 148.933 82.9877 152.6 82.821C156.433 81.9877 164.8 79.421 167.6 75.821C170.4 72.221 175.1 66.6543 177.1 64.321C178.433 60.4877 181.7 52.421 184.1 50.821C186.5 49.221 190.433 46.4877 192.1 45.321Z" fill="#F98DB1"/>
<path d="M160.6 82.321C155.8 86.321 140.6 87.6543 133.6 87.821C142.4 91.021 151.266 90.821 154.6 90.321C158.1 87.1543 165.6 80.521 167.6 79.321C169.6 78.121 173.766 73.1543 175.6 70.821C172.6 72.9877 165.4 78.321 160.6 82.321Z" fill="#FB9EBD"/>
<path d="M126.1 87.821C125.7 87.021 124.933 88.1544 124.6 88.821C124.266 89.4877 123.8 90.921 124.6 91.321C125.4 91.721 125.933 90.821 126.1 90.321C126.266 89.821 126.5 88.621 126.1 87.821Z" fill="#DA4A78"/>
<path d="M154.159 95.2461C154.058 94.3574 152.949 95.1586 152.407 95.6703C151.865 96.182 150.935 97.368 151.549 98.0183C152.163 98.6687 152.973 98.0065 153.301 97.5941C153.629 97.1818 154.26 96.1348 154.159 95.2461Z" fill="#DA4A78"/>
<path d="M187.909 58.0185C187.65 57.1626 186.703 58.1504 186.262 58.7513C185.821 59.3522 185.119 60.6863 185.84 61.2155C186.561 61.7447 187.239 60.9475 187.487 60.4827C187.736 60.018 188.168 58.8745 187.909 58.0185Z" fill="#DA4A78"/>
<path d="M158.119 93.518C158.261 92.2854 156.855 93.4603 156.134 94.2019C155.414 94.9434 154.09 96.6449 154.562 97.5183C155.033 98.3917 156.081 97.4263 156.546 96.8345C157.011 96.2426 157.977 94.7507 158.119 93.518Z" fill="#DA4A78"/>
<path d="M192.988 36.5L189.988 34L163.988 20L139.488 19C133.654 28.5 121.988 48 121.988 50C121.988 52 107.988 93.1667 100.988 113.5L68.4877 149.5L73.4877 136.5L81.9877 121C82.9877 119.167 85.0877 115.1 85.4877 113.5C85.8877 111.9 87.321 109.5 87.9877 108.5C90.4877 107 95.8877 103.7 97.4877 102.5C99.0877 101.3 103.488 93 105.488 89L107.488 84L102.988 75.5L91.9877 57.5L81.4877 42C79.6544 40 75.4877 35.6 73.4877 34C71.4877 32.4 67.4877 29.5 67.4877 29.5C67.4877 29.5 62.1877 28.5 66.9877 28.5C71.7877 28.5 84.9877 42.8333 90.9877 50C92.9877 51.2 100.821 66.1667 104.488 73.5L104.988 66.5C104.988 63.5 104.888 57.1 104.488 55.5C103.988 53.5 104.988 45 105.488 41.5C105.888 38.7 108.988 32.3333 110.488 29.5C111.654 28 113.788 25 112.988 25C112.188 25 109.988 27.6667 108.988 29C108.988 28 113.488 21.5 115.988 20C117.988 18.8 123.154 15.1667 125.488 13.5L120.488 15.5L121.988 14.5C129.188 10.1 136.654 8.33333 139.488 8L135.488 7.5C138.654 7 145.688 5.9 148.488 5.5C151.288 5.1 156.988 6.66667 159.488 7.5C159.988 7.66667 160.988 7.9 160.988 7.5C160.988 7.1 156.321 5.33333 153.988 4.5C157.988 4.5 162.988 6.5 164.988 7.5C166.321 8.5 168.988 10.2 168.988 9C168.988 7.8 165.654 5.5 163.988 4.5C166.788 4.9 174.821 11.3333 178.488 14.5C179.988 16.3333 182.988 19.8 182.988 19C182.988 18.2 181.988 16.6667 181.488 16C183.088 16.4 190.821 28.1667 194.488 34L192.988 36.5Z" fill="#446A43"/>
<path d="M101.488 117.5C97.8877 128.3 78.9878 145.667 69.9878 153C69.6544 152.5 68.8878 151.3 68.4878 150.5C68.0878 149.7 72.9878 139.5 75.4878 134.5L83.9878 119C84.3211 118.333 86.4878 115.9 92.4878 111.5C99.9878 106 98.9878 99.5 100.488 99C101.688 98.6 105.988 88.8333 107.988 84L86.5 71.5C79.5 66.6667 66.3 58.2 65.5 57C64.7099 55.8148 43.8588 45.1032 36.2785 41.1455C36.0453 41.0692 35.9435 41.0188 36 41C36.0907 41.0474 36.1836 41.0959 36.2785 41.1455C38.108 41.7439 48.021 43.9357 52.9878 45C58.5878 46.2 89.9877 66.5 104.988 76.5L108.488 79L104.988 75.5L106.988 55C106.154 51.6667 107.188 41.5 117.988 27.5C131.488 10 144.488 10.5 157.488 10C170.488 9.50001 193.488 33.5 189.488 35.5C186.288 37.1 179.488 34.1667 176.488 32.5L163.988 22.5H143.488L129.988 35.5L117.988 67.5L111.488 89C109.654 94 105.088 106.7 101.488 117.5Z" fill="url(#paint1_linear_21_44)"/>
<path d="M192 36L193 33.5C190 34.2639 182.9 35.2332 178.5 33C174.1 30.7668 169.667 25.7362 168 23.5C162 19.9 155.167 18.3334 152.5 18C149.167 18.3333 141.3 19.4 136.5 21C131.7 22.6 127.167 31.3333 125.5 35.5L123 43.5L119.5 55L112.5 67L110 78.2681C110.5 81.0121 111.2 86.8 110 88C108.8 89.2 107.5 95.5 107 98.5L109 93C110.667 91 114 86.9 114 86.5C114 86.1 118.667 81.3333 119 79.5L119.5 75.5L119 75.75L120 71H119.5C120.833 68.5 118.5 72 118.5 72C118.5 72 125.5 57.5 126.5 54.5C127.3 52.1 127.667 47.5 130 45C130.167 44.8333 132.6 43.5 133 39.5C133.4 35.5 137.833 31 140.5 28.5C144.5 26.6667 151.9 22.4 157.5 24C163.1 25.6 168.167 28.5 169.5 30L172 31.5C176.8 35.9 187.333 36.3334 192 36Z" fill="url(#paint2_linear_21_44)"/>
<path d="M111.5 91C112.3 88.6 115.5 85.3333 117 84L112.5 87.5L111.5 85.5L108.5 96L99.5 113.5L87.5 127C85.8333 129.333 83.5 132.7 77.5 137.5C71.5 142.3 72 140.667 72.5 138.5L79 122.5L73 135L67 146C66.1667 147.167 64.4 150 64 152C63.6 154 60.5 156.5 59 157.5C59.1667 157.667 60.3 157.6 63.5 156C66.7 154.4 68.1667 152.333 68.5 151.5C68.1 150.7 73.3333 145.833 76 143.5C79 141.5 85.1 137.3 85.5 136.5C86 135.5 89.5 135 90.5 135C91.3 135 91.5 134.333 91.5 134L96 131.5C95.6667 130.667 95.7 128.4 98.5 126C101.3 123.6 103.333 120 104 118.5L98.5 124.5C99.6667 122.333 102 117.9 102 117.5C102 117.1 106.667 110.667 109 107.5L102 114.5L106 107.5L103 111C103 109 108.5 102 110 100.5C111.5 99 113 93 112.5 94.5C112.1 95.7 110 98 109 99C109.5 97.3333 110.7 93.4 111.5 91Z" fill="#618E5D"/>
<path d="M193.5 40.5C191.5 40.8333 185.9 42.8 183.5 48C180.5 54.5 178 63.5 171 70C165.4 75.2 156.667 79.5 153 81C154.833 80 158.5 77.8 158.5 77C158.5 76.2 153.5 78.6667 151 80C149.167 81 144.5 83.1 140.5 83.5C136.5 83.9 129.833 84 127 84C124.167 83.6667 118.1 82.8 116.5 82L118 78.5C117.5 79.1667 116.3 80.8 115.5 82C114.7 83.2 115.5 79.5 116 77.5C116.667 76 118.4 72.7 120 71.5C121.571 70.3216 118.449 72.5826 116.6 73.927C115.72 75.7047 115 77.2268 115 77C115 76.6 116 74.8333 116.5 74C116.533 73.976 116.567 73.9516 116.6 73.927C117.661 71.7855 118.954 69.2732 119.5 69C119.333 68.1667 119.3 65.7 120.5 62.5C121.7 59.3 123 57.1667 123.5 56.5C124.333 55.1667 126.3 52.3 127.5 51.5C128.7 50.7 127.333 50.8333 126.5 51L125 52C126.5 50 129.8 46 131 46H131.5C132.333 51.3333 135.2 62.6 140 65C146 68 150.5 72 160 70.5C167.6 69.3 171.833 65 173 63C177 57.6667 182.6 44.1 173 32.5L170.5 30C171.333 30.5 173.7 31.8 176.5 33C180 34.5 188 36 193.5 35.5V40.5Z" fill="#18A9D2"/>
<path d="M179.5 49.5C181.5 42.7 176.333 35 173.5 32C174.5 32.1667 177.3 33.5 180.5 37.5C183.7 41.5 186.167 42.8333 187 43L183.5 47.5C181.833 50.1667 178.4 56.4 178 60C177.6 63.6 170.5 70.5 167 73.5C159.333 76.5 143.9 82.6 143.5 83C143.1 83.4 139.667 82.8333 138 82.5L154 76.5L157.5 74C154.5 74 147.7 73.9 144.5 73.5C141.3 73.1 135.167 67.6667 132.5 65L127.5 57.5C127.667 56 127.9 52.9 127.5 52.5C127.1 52.1 126 53.3333 125.5 54L127.5 50.5L122 54C123 52.8333 128.8 45.2 130 44C131.2 42.8 131.833 46 132 46.5L133 53.5C134.2 61.9 144.5 68 149.5 70C152.833 71 161.2 72 168 68C176.5 63 177 58 179.5 49.5Z" fill="url(#paint3_linear_21_44)"/>
<path d="M124.552 72.2046C124.552 74.6046 122.552 75.8712 121.552 76.2046C120.352 75.8046 121.385 73.7046 122.052 72.7046C122.885 71.5379 124.552 69.8046 124.552 72.2046Z" fill="#1BA6CA"/>
<path d="M152.554 76.1776C151.862 78.4756 149.582 79.1118 148.528 79.1426C147.495 78.4136 149.09 76.7008 150.016 75.9355C151.151 75.0587 153.246 73.8795 152.554 76.1776Z" fill="#006C88"/>
<path d="M155.913 75.5129C155.739 76.5347 154.502 76.8793 153.905 76.9239C153.247 76.6368 153.991 75.8433 154.445 75.4824C155.006 75.0668 156.086 74.491 155.913 75.5129Z" fill="#006C88"/>
<path d="M124 67.9258C124 69.7703 122.874 70.7438 122.311 71C121.635 70.6926 122.217 69.0786 122.592 68.3101C123.062 67.4134 124 66.0813 124 67.9258Z" fill="#006C88"/>
<path d="M185.312 38.2803C184.484 39.1474 182.959 38.5661 182.3 38.1671C181.786 37.3992 183.072 37.1772 183.78 37.1623C184.636 37.1737 186.14 37.4132 185.312 38.2803Z" fill="#006C88"/>
<path d="M187.687 38.2827C187.062 38.846 186.369 38.7402 186.1 38.6168C185.986 38.2811 186.721 37.9965 187.102 37.8962C187.557 37.7903 188.311 37.7194 187.687 38.2827Z" fill="#006C88"/>
<path d="M122.5 67L127 61.5C128.167 62.6667 131.1 65.7 133.5 68.5C135.9 71.3 145.5 74.3333 150 75.5L146 77C142.667 77.5 135.1 78.7 131.5 79.5C127.9 80.3 122 79.1667 119.5 78.5L119 75.5L122.5 67Z" fill="url(#paint4_linear_21_44)"/>
<path d="M146.356 18.0379C149.156 19.6379 149.522 23.0379 149.356 24.5379L147.356 25.038C147.356 25.3713 147.256 25.338 146.856 22.538C146.456 19.738 145.022 18.0379 144.356 17.5379C143.856 17.0379 143.556 16.4379 146.356 18.0379Z" fill="black"/>
<path d="M125.037 34.5001C126.944 35.4821 131.33 36.2486 133.356 36.538C133.189 37.038 133.156 39.138 132.356 39.538C131.632 39.8996 126.986 36.0763 125.037 34.5001C124.747 34.3507 124.514 34.1964 124.356 34.038C123.941 33.6229 124.291 33.897 125.037 34.5001Z" fill="black"/>
<path d="M123.356 59.5379C125.356 59.1379 130.022 56.2046 131.856 55.038C132.022 55.3713 132.356 56.238 132.356 57.038C132.356 58.038 120.856 60.0379 123.356 59.5379Z" fill="black"/>
<ellipse cx="154.356" cy="48.038" rx="24" ry="24.5" fill="#010702"/>
<circle cx="154.856" cy="49.038" r="22.5" fill="#3E703B"/>
<ellipse cx="156.356" cy="48.538" rx="18" ry="17" fill="url(#paint5_radial_21_44)"/>
<path d="M168.856 53.538C170.056 51.938 169.356 48.8713 168.856 47.538L165.856 41.538C164.522 40.3713 161.956 39.038 162.356 43.038C162.856 48.038 162.356 46.538 160.356 51.038C158.756 54.638 155.022 54.8713 153.356 54.538C151.856 54.7046 149.156 55.438 150.356 57.038C151.856 59.038 155.856 60.538 160.856 60.038C165.856 59.538 167.356 55.538 168.856 53.538Z" fill="url(#paint6_radial_21_44)"/>
<ellipse cx="141.435" cy="43.1351" rx="3.73596" ry="6.66023" transform="rotate(23.4714 141.435 43.1351)" fill="#FBFDFF"/>
<ellipse cx="142.947" cy="54.8072" rx="2.13812" ry="3.70139" transform="rotate(-27.1555 142.947 54.8072)" fill="#FBFBFB"/>
<path d="M27.5 0.5C38.3 17.3 57.3333 26.1667 65.5 28.5C78.7 33.3 95.6667 61.5 102.5 75L74.5 57.5C68.6667 53 54.8 43.8 46 43C37.2 42.2 30 34 27.5 30C33.3308 36.6082 42.4668 36.8261 46.6486 36.0683C44.6628 36.2817 39.5048 34.381 32 25C24 15 25.6667 4.5 27.5 0.5Z" fill="url(#paint7_linear_21_44)"/>
<path d="M91.6822 106.697C99.0168 105.102 106.283 90.7468 109 83.7684L88.1168 68.8147C78.2695 61.8363 55.5917 49.4107 47.3692 45.3873C23.9393 33.9228 36.6729 41.3996 0 9C2.54673 30.4336 16.9782 43.3935 26.9953 51.3688C19.6608 48.1786 21.9019 51.8672 0 33.9228C3.25981 45.0882 39.5592 73.467 47.3692 81.7746C42.4794 80.1795 31.7492 74.7962 26.9953 68.8147C42.2757 95.7314 58.0654 98.2236 60.1028 99.2206C62.1402 100.217 82.514 108.691 91.6822 106.697Z" fill="url(#paint8_linear_21_44)"/>
<path d="M94.5 132.5L93 136C93.7486 135.319 94.8197 134.328 95.8522 133.338C97.6301 131.224 99.2248 129.55 99 130C98.7634 130.473 97.3482 131.903 95.8522 133.338C93.6758 135.926 91.2248 139.174 91.5 140C91.9 141.2 89.3333 143.5 88 144.5L84.5 147C81.5 147.833 73.5 151.7 65.5 160.5C57.5 169.3 57.5 166.5 58.5 164L62 157L69.5 149L79 140.5L88 134L94.5 131.5V132.5Z" fill="url(#paint9_linear_21_44)"/>
<path d="M113.5 143C114.7 142.6 114.667 140.167 114.5 139L112 139.5L110.5 140L109.5 141.5C108.833 142 107.7 143 108.5 143C109.3 143 110.833 141.667 111.5 141C111.333 141.333 110.8 142.1 110 142.5C109.2 142.9 109.333 143.333 109.5 143.5C110.167 143.5 111.6 143.2 112 142C112.4 140.8 113.167 141.167 113.5 141.5L113 142.5C112.667 142.833 112.3 143.4 113.5 143Z" fill="black"/>
<defs>
<linearGradient id="paint0_linear_21_44" x1="138.5" y1="97" x2="66.5" y2="143.5" gradientUnits="userSpaceOnUse">
<stop stop-color="#E2CA9E"/>
<stop offset="1" stop-color="#E2CA9E" stop-opacity="0"/>
</linearGradient>
<linearGradient id="paint1_linear_21_44" x1="52.9878" y1="49" x2="168.488" y2="220.5" gradientUnits="userSpaceOnUse">
<stop offset="0.0125223" stop-color="#4B6749"/>
<stop offset="0.185137" stop-color="#6EA16B"/>
<stop offset="0.353281" stop-color="#588755" stop-opacity="0"/>
<stop offset="0.588502" stop-color="#588755" stop-opacity="0"/>
</linearGradient>
<linearGradient id="paint2_linear_21_44" x1="131.5" y1="50.5" x2="113.5" y2="47.5" gradientUnits="userSpaceOnUse">
<stop stop-color="#446943"/>
<stop offset="1" stop-color="#446943" stop-opacity="0"/>
</linearGradient>
<linearGradient id="paint3_linear_21_44" x1="156.25" y1="32" x2="156.25" y2="83.1376" gradientUnits="userSpaceOnUse">
<stop offset="0.315625" stop-color="#46CDF0"/>
<stop offset="0.763542" stop-color="#46CDF0" stop-opacity="0"/>
</linearGradient>
<linearGradient id="paint4_linear_21_44" x1="134.5" y1="61.5" x2="134.5" y2="79.7752" gradientUnits="userSpaceOnUse">
<stop offset="0.0499999" stop-color="#AFE1F1"/>
<stop offset="0.852083" stop-color="#95E3FC" stop-opacity="0"/>
</linearGradient>
<radialGradient id="paint5_radial_21_44" cx="0" cy="0" r="1" gradientUnits="userSpaceOnUse" gradientTransform="translate(155.356 48.038) rotate(141.033) scale(43.7293 46.3016)">
<stop offset="0.3" stop-color="#060203"/>
<stop offset="1" stop-color="#060203" stop-opacity="0"/>
</radialGradient>
<radialGradient id="paint6_radial_21_44" cx="0" cy="0" r="1" gradientUnits="userSpaceOnUse" gradientTransform="translate(159.787 50.2424) rotate(20.8848) scale(13.4521 13.2323)">
<stop stop-color="#95BD8B"/>
<stop offset="1" stop-color="#95BD8B" stop-opacity="0"/>
</radialGradient>
<linearGradient id="paint7_linear_21_44" x1="78.5" y1="17" x2="-81" y2="69" gradientUnits="userSpaceOnUse">
<stop stop-color="#6FA16B"/>
<stop offset="1" stop-color="#6FA16B" stop-opacity="0"/>
</linearGradient>
<linearGradient id="paint8_linear_21_44" x1="48.3878" y1="33.4243" x2="-25.7842" y2="204.585" gradientUnits="userSpaceOnUse">
<stop stop-color="#E75C89"/>
<stop offset="1" stop-color="#E75C89" stop-opacity="0"/>
</linearGradient>
<linearGradient id="paint9_linear_21_44" x1="76" y1="144.5" x2="81" y2="150" gradientUnits="userSpaceOnUse">
<stop stop-color="#446A43"/>
<stop offset="1" stop-color="#446A43" stop-opacity="0"/>
</linearGradient>
</defs>
</svg>
